<?xml version="1.0" encoding="UTF-8" standalone="no"?>
<!-- Created with Inkscape (http://www.inkscape.org/) -->

<svg
   width="114.93597mm"
   height="114.92735mm"
   viewBox="0 0 114.93597 114.92735"
   version="1.1"
   id="svg1"
   xml:space="preserve"
   inkscape:version="1.3.2 (091e20e, 2023-11-25, custom)"
   sodipodi:docname="bdziamPakLogo.svg"
   xmlns:inkscape="http://www.inkscape.org/namespaces/inkscape"
   xmlns:sodipodi="http://sodipodi.sourceforge.net/DTD/sodipodi-0.dtd"
   xmlns="http://www.w3.org/2000/svg"
   xmlns:svg="http://www.w3.org/2000/svg"><sodipodi:namedview
     id="namedview1"
     pagecolor="#ffffff"
     bordercolor="#000000"
     borderopacity="0.25"
     inkscape:showpageshadow="2"
     inkscape:pageopacity="0.0"
     inkscape:pagecheckerboard="0"
     inkscape:deskcolor="#d1d1d1"
     inkscape:document-units="mm"
     inkscape:zoom="2.0899411"
     inkscape:cx="376.56564"
     inkscape:cy="465.32412"
     inkscape:window-width="2560"
     inkscape:window-height="1369"
     inkscape:window-x="1912"
     inkscape:window-y="-8"
     inkscape:window-maximized="1"
     inkscape:current-layer="layer1" /><defs
     id="defs1" /><g
     inkscape:label="Layer 1"
     inkscape:groupmode="layer"
     id="layer1"
     transform="translate(-56.365346,-49.191897)"><g
       id="g9"
       inkscape:export-filename="Icon.svg"
       inkscape:export-xdpi="96"
       inkscape:export-ydpi="96"><circle
         style="fill:#559f6a;fill-opacity:0.234756;stroke:#23443a;stroke-width:2.79;stroke-linecap:round;stroke-linejoin:round;stroke-dasharray:2.79, 5.58;stroke-dashoffset:11.16;stroke-opacity:1"
         id="path7"
         cx="113.83551"
         cy="106.65963"
         r="56.077869" /><path
         id="path1"
         style="fill:#23443a;fill-opacity:1;stroke:#559f6a;stroke-width:2.08696;stroke-dasharray:none;stroke-opacity:1"
         d="m 89.810966,65.52296 v 20.665351 20.326299 0.33838 20.30252 20.6409 h 15.156174 c 12.42562,0 15.51911,-0.0926 17.17257,-0.51285 9.19456,-2.33722 15.73307,-10.63484 15.71593,-19.94497 -0.0128,-6.97931 -3.91628,-13.13142 -9.50698,-16.92523 -3.54549,-2.40595 0,0 -6.70307,-4.00164 4.82442,-2.46836 4.77316,-2.43506 4.82442,-2.46836 4.03096,-1.92138 7.35997,-4.564156 9.28136,-8.595124 1.61646,-3.391246 2.11067,-5.520676 2.10427,-9.068062 -0.0171,-8.917674 -5.72782,-16.71752 -14.34988,-19.599997 l -2.73345,-0.913348 -15.48067,-0.122263 z m 18.495924,9.137924 c 6.17127,0 6.34514,0.02389 7.31671,0.995466 0.81935,0.819336 0.99547,1.395732 0.99547,3.261992 0,1.866261 -0.17612,2.442658 -0.99547,3.261991 -0.97157,0.971572 -1.14544,0.995467 -7.31671,0.995467 -6.17127,0 -6.34514,-0.02389 -7.3167,-0.995467 -0.81934,-0.819333 -0.995471,-1.39573 -0.995471,-3.261991 0,-1.86626 0.176131,-2.442656 0.995471,-3.261992 0.97156,-0.971571 1.14543,-0.995466 7.3167,-0.995466 z m 0.10224,15.31233 c 0.51138,0.01622 1.03808,0.118247 1.56804,0.319944 1.89307,0.720508 3.39821,2.802394 3.39821,4.700152 0,1.701277 -0.93955,3.595125 -2.08834,4.209929 -2.936,1.571291 -6.13914,0.861991 -7.43631,-1.646427 -1.86261,-3.601923 0.97876,-7.697073 4.5584,-7.583598 z m 0.75245,24.649796 c 6.11115,0 6.28333,0.0237 7.24543,0.98576 0.81137,0.81136 0.98578,1.38216 0.98578,3.23024 0,1.84808 -0.17441,2.41887 -0.98578,3.23021 -0.9621,0.96212 -1.13428,0.98578 -7.24543,0.98578 -6.11117,0 -6.28336,-0.0237 -7.24545,-0.98578 -0.81137,-0.81134 -0.98578,-1.38213 -0.98578,-3.23021 0,-1.84808 0.17441,-2.41888 0.98578,-3.23024 0.96209,-0.9621 1.13428,-0.98576 7.24545,-0.98576 z m 0.10124,15.16321 c 0.5064,0.0161 1.02797,0.11714 1.55276,0.31682 1.87463,0.7135 3.36511,2.7751 3.36511,4.65439 0,1.68469 -0.9304,3.5601 -2.068,4.16891 -2.9074,1.556 -6.07934,0.8536 -7.36388,-1.63039 -1.84448,-3.56684 0.96923,-7.6221 4.51401,-7.50973 z"
         sodipodi:nodetypes="ccccccsssscsscccccsssssssssssssssssssssssscssssc" /></g></g></svg>
